<svg width="25" height="24" viewBox="0 0 25 24" fill="none" xmlns="http://www.w3.org/2000/svg">
<path d="M21.551 10.2855H3.4482C3.1911 10.2803 2.93611 10.333 2.70213 10.4397C2.46816 10.5464 2.26118 10.7044 2.09655 10.902C1.93192 11.0995 1.81385 11.3316 1.75107 11.581C1.6883 11.8304 1.68244 12.0907 1.73393 12.3427L3.61963 21.7713C3.69979 22.1642 3.91523 22.5168 4.22846 22.7673C4.54168 23.0179 4.93288 23.1508 5.33392 23.1427H19.6653C20.0665 23.1508 20.4577 23.0179 20.7709 22.7673C21.0841 22.5168 21.2996 22.1642 21.3796 21.7713L23.2653 12.3427C23.3168 12.0907 23.3109 11.8304 23.2482 11.581C23.1854 11.3316 23.0673 11.0995 22.9028 10.902C22.738 10.7044 22.5311 10.5464 22.2971 10.4397C22.0631 10.333 21.8082 10.2803 21.551 10.2855Z" stroke="#FDFDFD" stroke-linecap="round" stroke-linejoin="round"/>
<path d="M15.9277 4.28564L19.3563 10.2856" stroke="#FDFDFD" stroke-linecap="round" stroke-linejoin="round"/>
<path d="M5.64258 10.2856L9.07115 4.28564" stroke="#FDFDFD" stroke-linecap="round" stroke-linejoin="round"/>
</svg>
