<svg width="24" height="24" viewBox="0 0 24 24" fill="none" xmlns="http://www.w3.org/2000/svg">
<path d="M15 4V2M15 4V6M15 4H10.5M21 21H5C3.89543 21 3 20.1046 3 19V10H21V21Z" stroke="#FDFDFD" stroke-linecap="round" stroke-linejoin="round"/>
<path d="M3 10V6C3 4.89543 3.89543 4 5 4H7" stroke="#FDFDFD" stroke-linecap="round" stroke-linejoin="round"/>
<path d="M7 2V6" stroke="#FDFDFD" stroke-linecap="round" stroke-linejoin="round"/>
<path d="M21 10V6C21 4.89543 20.1046 4 19 4H18.5" stroke="#FDFDFD" stroke-linecap="round" stroke-linejoin="round"/>
<circle cx="5.8" cy="12.8" r="0.8" fill="#FDFDFD"/>
<circle cx="5.8" cy="15.1999" r="0.8" fill="#FDFDFD"/>
<circle cx="5.8" cy="17.8" r="0.8" fill="#FDFDFD"/>
<circle cx="12.2004" cy="12.8" r="0.8" fill="#FDFDFD"/>
<circle cx="18.2004" cy="12.8" r="0.8" fill="#FDFDFD"/>
<circle cx="12.2004" cy="15.1999" r="0.8" fill="#FDFDFD"/>
<circle cx="12.2004" cy="17.8" r="0.8" fill="#FDFDFD"/>
<circle cx="18.2004" cy="15.1999" r="0.8" fill="#FDFDFD"/>
<circle cx="18.2004" cy="17.8" r="0.8" fill="#FDFDFD"/>
<circle cx="9.00117" cy="12.8" r="0.8" fill="#FDFDFD"/>
<circle cx="15.2004" cy="12.8" r="0.8" fill="#FDFDFD"/>
<circle cx="9.00117" cy="15.1999" r="0.8" fill="#FDFDFD"/>
<circle cx="15.2004" cy="15.1999" r="0.8" fill="#FDFDFD"/>
<circle cx="15.2004" cy="17.8" r="0.8" fill="#FDFDFD"/>
<circle cx="9.00117" cy="17.8" r="0.8" fill="#FDFDFD"/>
</svg>
