<svg width="24" height="24" viewBox="0 0 24 24" fill="none" xmlns="http://www.w3.org/2000/svg">
<g clip-path="url(#clip0_2016_24760)">
<path d="M12.0006 13.7143C14.3675 13.7143 16.2863 11.7955 16.2863 9.42854C16.2863 7.0616 14.3675 5.14282 12.0006 5.14282C9.63363 5.14282 7.71484 7.0616 7.71484 9.42854C7.71484 11.7955 9.63363 13.7143 12.0006 13.7143Z" stroke="black" stroke-linecap="round" stroke-linejoin="round"/>
<path d="M4.67969 20.4001C5.44467 19.1444 6.51982 18.1065 7.80176 17.3865C9.0837 16.6663 10.5293 16.2881 11.9997 16.2881C13.47 16.2881 14.9157 16.6663 16.1976 17.3865C17.4796 18.1065 18.5546 19.1444 19.3197 20.4001" stroke="black" stroke-linecap="round" stroke-linejoin="round"/>
<path d="M12.0003 23.1429C18.1544 23.1429 23.1431 18.1541 23.1431 12C23.1431 5.84601 18.1544 0.857178 12.0003 0.857178C5.84625 0.857178 0.857422 5.84601 0.857422 12C0.857422 18.1541 5.84625 23.1429 12.0003 23.1429Z" stroke="black" stroke-linecap="round" stroke-linejoin="round"/>
</g>
<defs>
<clipPath id="clip0_2016_24760">
<rect width="24" height="24" fill="white"/>
</clipPath>
</defs>
</svg>
