<svg width="15" height="15" viewBox="0 0 15 15" fill="none" xmlns="http://www.w3.org/2000/svg">
<g clip-path="url(#clip0_1820_4511)">
<path d="M13.0525 8.03585H4.28823L3.2168 2.67871H13.931C14.0095 2.679 14.0867 2.69646 14.1577 2.72989C14.2285 2.76331 14.2912 2.81188 14.3412 2.87216C14.3913 2.93243 14.4275 3.00296 14.4474 3.07875C14.4672 3.15455 14.4702 3.23378 14.4561 3.31085L13.5775 7.59657C13.557 7.72048 13.4927 7.83295 13.3964 7.91354C13.3001 7.99414 13.178 8.03754 13.0525 8.03585Z" stroke="white" stroke-linecap="round" stroke-linejoin="round"/>
<path d="M3.21568 2.6785L2.76568 0.964216C2.74098 0.843213 2.67523 0.734459 2.57956 0.656361C2.48389 0.578264 2.36418 0.535619 2.24068 0.535645H0.537109" stroke="white" stroke-linecap="round" stroke-linejoin="round"/>
<path d="M4.28711 8.03564L4.73711 10.2856C4.76181 10.4067 4.82756 10.5154 4.92323 10.5935C5.0189 10.6716 5.13862 10.7142 5.26211 10.7142H11.7871" stroke="white" stroke-linecap="round" stroke-linejoin="round"/>
<path d="M11.2506 14.464C10.9547 14.464 10.7148 14.2241 10.7148 13.9283C10.7148 13.6325 10.9547 13.3926 11.2506 13.3926C11.5465 13.3926 11.7863 13.6325 11.7863 13.9283C11.7863 14.2241 11.5465 14.464 11.2506 14.464Z" stroke="white" stroke-linecap="round" stroke-linejoin="round"/>
<path d="M5.89314 14.464C5.59727 14.464 5.35742 14.2241 5.35742 13.9283C5.35742 13.6325 5.59727 13.3926 5.89314 13.3926C6.189 13.3926 6.42885 13.6325 6.42885 13.9283C6.42885 14.2241 6.189 14.464 5.89314 14.464Z" stroke="white" stroke-linecap="round" stroke-linejoin="round"/>
</g>
<defs>
<clipPath id="clip0_1820_4511">
<rect width="15" height="15" fill="white"/>
</clipPath>
</defs>
</svg>
